<svg id="eRhE2BY9cP41" xmlns="http://www.w3.org/2000/svg" xmlns:xlink="http://www.w3.org/1999/xlink" viewBox="0 0 1024 1024" shape-rendering="geometricPrecision" text-rendering="geometricPrecision" project-id="0f5a9a2b62f94b01b199fe9123bd11ac" export-id="ebcd03c353684714ab650c8a19080f47" cached="false"> <style> svg[viewBox="0 0 1024 1024"]:has(#eRhE2BY9cP4135>#eRhE2BY9cP4136):has(#eRhE2BY9cP4135>#eRhE2BY9cP4137):has(#eRhE2BY9cP4137>#eRhE2BY9cP4138):has(#eRhE2BY9cP4137>#eRhE2BY9cP4139):has(#eRhE2BY9cP4139>#eRhE2BY9cP4140_tr):has(#eRhE2BY9cP4140_tr>#eRhE2BY9cP4140):has(#eRhE2BY9cP4135>#eRhE2BY9cP4141_tr):has(#eRhE2BY9cP4141_tr>#eRhE2BY9cP4141) #eRhE2BY9cP44 { animation: eRhE2BY9cP44__m 3000ms linear infinite normal forwards } @keyframes eRhE2BY9cP44__m { 0% { d: path('M578.92,587.33C579.06,554.77,450.9,562.15,449.96,594.44C445.38,751.38,284.755369,722.86833,284.785369,917.85833C284.785369,917.911665,284.896286,917.867606,285.113311,917.738313C288.371342,915.797344,316.587277,882.779365,351.400905,883.570153C375.881447,884.126227,395.828968,918.167224,428.445,918.644302C454.00766,919.01821,477.865441,883.853822,505.265,883.570153C528.635419,883.328197,567.961452,919.198731,590.500372,918.644302C626.807899,917.751182,648.476136,884.756646,675.865,883.570153C715.184015,881.866841,744.245,919.349615,744.245,918.644302C744.245,721.384302,578.09,779.45,578.91,587.34L578.92,587.33Z') } 12.666667% { d: path('M578.873202,587.452474C579.013202,554.892474,450.853202,562.272474,449.913202,594.562474C445.333202,751.502474,287.295935,691.184713,287.325935,886.174713C287.325935,886.228048,308.9845,881.375218,320.425941,880.933967C335.027489,879.543678,356.092663,900.213707,390.906291,901.004495C415.386833,901.560569,434.663479,900.518796,467.279511,900.995874C492.842171,901.369782,521.72131,901.747198,549.120869,901.463529C572.491288,901.221573,611.166067,901.550303,633.704987,900.995874C670.012515,900.102754,696.043676,900.769467,709.555515,900.18413C728.952896,899.34383,739.068,881.63928,739.068,880.933967C739.068,683.673967,578.043202,779.572474,578.863202,587.462474L578.873202,587.452474Z') } 25% { d: path('M578.92,587.33C579.06,554.77,450.9,562.15,449.96,594.44C445.38,751.38,284.755369,722.86833,284.785369,917.85833C284.785369,917.911665,284.896286,917.867606,285.113311,917.738313C288.371342,915.797344,316.587277,882.779365,351.400905,883.570153C375.881447,884.126227,395.828968,918.167224,428.445,918.644302C454.00766,919.01821,477.865441,883.853822,505.265,883.570153C528.635419,883.328197,567.961452,919.198731,590.500372,918.644302C626.807899,917.751182,648.476136,884.756646,675.865,883.570153C715.184015,881.866841,744.245,919.349615,744.245,918.644302C744.245,721.384302,578.09,779.45,578.91,587.34L578.92,587.33Z') } 37.666667% { d: path('M578.873202,587.452474C579.013202,554.892474,450.853202,562.272474,449.913202,594.562474C445.333202,751.502474,287.295935,691.184713,287.325935,886.174713C287.325935,886.228048,308.9845,881.375218,320.425941,880.933967C335.027489,879.543678,356.092663,900.213707,390.906291,901.004495C415.386833,901.560569,434.663479,900.518796,467.279511,900.995874C492.842171,901.369782,521.72131,901.747198,549.120869,901.463529C572.491288,901.221573,611.166067,901.550303,633.704987,900.995874C670.012515,900.102754,696.043676,900.769467,709.555515,900.18413C728.952896,899.34383,739.068,881.63928,739.068,880.933967C739.068,683.673967,578.043202,779.572474,578.863202,587.462474L578.873202,587.452474Z') } 50% { d: path('M578.92,587.33C579.06,554.77,450.9,562.15,449.96,594.44C445.38,751.38,284.755369,722.86833,284.785369,917.85833C284.785369,917.911665,284.896286,917.867606,285.113311,917.738313C288.371342,915.797344,316.587277,882.779365,351.400905,883.570153C375.881447,884.126227,395.828968,918.167224,428.445,918.644302C454.00766,919.01821,477.865441,883.853822,505.265,883.570153C528.635419,883.328197,567.961452,919.198731,590.500372,918.644302C626.807899,917.751182,648.476136,884.756646,675.865,883.570153C715.184015,881.866841,744.245,919.349615,744.245,918.644302C744.245,721.384302,578.09,779.45,578.91,587.34L578.92,587.33Z') } 62.666667% { d: path('M578.873202,587.452474C579.013202,554.892474,450.853202,562.272474,449.913202,594.562474C445.333202,751.502474,287.295935,691.184713,287.325935,886.174713C287.325935,886.228048,308.9845,881.375218,320.425941,880.933967C335.027489,879.543678,356.092663,900.213707,390.906291,901.004495C415.386833,901.560569,434.663479,900.518796,467.279511,900.995874C492.842171,901.369782,521.72131,901.747198,549.120869,901.463529C572.491288,901.221573,611.166067,901.550303,633.704987,900.995874C670.012515,900.102754,696.043676,900.769467,709.555515,900.18413C728.952896,899.34383,739.068,881.63928,739.068,880.933967C739.068,683.673967,578.043202,779.572474,578.863202,587.462474L578.873202,587.452474Z') } 75% { d: path('M578.92,587.33C579.06,554.77,450.9,562.15,449.96,594.44C445.38,751.38,284.755369,722.86833,284.785369,917.85833C284.785369,917.911665,284.896286,917.867606,285.113311,917.738313C288.371342,915.797344,316.587277,882.779365,351.400905,883.570153C375.881447,884.126227,395.828968,918.167224,428.445,918.644302C454.00766,919.01821,477.865441,883.853822,505.265,883.570153C528.635419,883.328197,567.961452,919.198731,590.500372,918.644302C626.807899,917.751182,648.476136,884.756646,675.865,883.570153C715.184015,881.866841,744.245,919.349615,744.245,918.644302C744.245,721.384302,578.09,779.45,578.91,587.34L578.92,587.33Z') } 87.666667% { d: path('M578.873202,587.452474C579.013202,554.892474,450.853202,562.272474,449.913202,594.562474C445.333202,751.502474,287.295935,691.184713,287.325935,886.174713C287.325935,886.228048,308.9845,881.375218,320.425941,880.933967C335.027489,879.543678,356.092663,900.213707,390.906291,901.004495C415.386833,901.560569,434.663479,900.518796,467.279511,900.995874C492.842171,901.369782,521.72131,901.747198,549.120869,901.463529C572.491288,901.221573,611.166067,901.550303,633.704987,900.995874C670.012515,900.102754,696.043676,900.769467,709.555515,900.18413C728.952896,899.34383,739.068,881.63928,739.068,880.933967C739.068,683.673967,578.043202,779.572474,578.863202,587.462474L578.873202,587.452474Z') } 100% { d: path('M578.827636,587.571725C578.967636,555.011725,450.807636,562.391725,449.867636,594.681725C445.287636,751.621725,284.663005,723.110055,284.693005,918.100055C284.693005,918.15339,328.586497,884.556877,350.956976,883.811878C376.603526,882.957777,394.558433,917.18925,429.372061,917.980038C453.852603,918.536112,472.476029,883.3348,505.092061,883.811878C530.654722,884.185786,564.423077,919.169696,591.822636,918.886027C615.193055,918.644071,653.233719,884.366307,675.772638,883.811878C712.080167,882.918758,742.359438,916.360898,742.359438,916.360898C742.359438,916.360898,744.152636,919.59134,744.152636,918.886027C744.152636,721.626027,577.997636,779.691725,578.817636,587.581725L578.827636,587.571725Z') } } svg[viewBox="0 0 1024 1024"]:has(#eRhE2BY9cP4135>#eRhE2BY9cP4136):has(#eRhE2BY9cP4135>#eRhE2BY9cP4137):has(#eRhE2BY9cP4137>#eRhE2BY9cP4138):has(#eRhE2BY9cP4137>#eRhE2BY9cP4139):has(#eRhE2BY9cP4139>#eRhE2BY9cP4140_tr):has(#eRhE2BY9cP4140_tr>#eRhE2BY9cP4140):has(#eRhE2BY9cP4135>#eRhE2BY9cP4141_tr):has(#eRhE2BY9cP4141_tr>#eRhE2BY9cP4141) #eRhE2BY9cP45 { animation: eRhE2BY9cP45__m 3000ms linear infinite normal forwards } @keyframes eRhE2BY9cP45__m { 0% { d: path('M576.09,589.63C576.03,579.96,574.52,577.69,564.32,573.14C560.54,571.46,562.08,591.72,562.44,606.78C566.21,761.83,665.4,776.89,692.63,813.4C746.77,886,737.149372,903.298309,741.252224,912.267336C746.644592,736.489042,577.23,779.2,576.09,589.63Z') } 12.666667% { d: path('M576.09,589.63C576.03,579.96,574.52,577.69,564.32,573.14C560.54,571.46,562.08,591.72,562.44,606.78C566.21,761.83,630.120001,691.43,689.780428,788.320185C737.265573,865.437374,735.410148,873.445974,739.513,882.415001C734.00007,691.43,577.23,779.2,576.09,589.63Z') } 25% { d: path('M576.09,589.63C576.03,579.96,574.52,577.69,564.32,573.14C560.54,571.46,562.08,591.72,562.44,606.78C566.21,761.83,665.4,776.89,692.63,813.4C746.77,886,737.149372,903.298309,741.252224,912.267336C746.644592,736.489042,577.23,779.2,576.09,589.63Z') } 37.666667% { d: path('M576.09,589.63C576.03,579.96,574.52,577.69,564.32,573.14C560.54,571.46,562.08,591.72,562.44,606.78C566.21,761.83,630.120001,691.43,689.780428,788.320185C737.265573,865.437374,735.410148,873.445974,739.513,882.415001C734.00007,691.43,577.23,779.2,576.09,589.63Z') } 50% { d: path('M576.09,589.63C576.03,579.96,574.52,577.69,564.32,573.14C560.54,571.46,562.08,591.72,562.44,606.78C566.21,761.83,665.4,776.89,692.63,813.4C746.77,886,737.149372,903.298309,741.252224,912.267336C746.644592,736.489042,577.23,779.2,576.09,589.63Z') } 62.666667% { d: path('M576.09,589.63C576.03,579.96,574.52,577.69,564.32,573.14C560.54,571.46,562.08,591.72,562.44,606.78C566.21,761.83,630.120001,691.43,689.780428,788.320185C737.265573,865.437374,735.410148,873.445974,739.513,882.415001C734.00007,691.43,577.23,779.2,576.09,589.63Z') } 75% { d: path('M576.09,589.63C576.03,579.96,574.52,577.69,564.32,573.14C560.54,571.46,562.08,591.72,562.44,606.78C566.21,761.83,665.4,776.89,692.63,813.4C746.77,886,737.149372,903.298309,741.252224,912.267336C746.644592,736.489042,577.23,779.2,576.09,589.63Z') } 87.666667% { d: path('M576.09,589.63C576.03,579.96,574.52,577.69,564.32,573.14C560.54,571.46,562.08,591.72,562.44,606.78C566.21,761.83,630.120001,691.43,689.780428,788.320185C737.265573,865.437374,735.410148,873.445974,739.513,882.415001C734.00007,691.43,577.23,779.2,576.09,589.63Z') } 100% { d: path('M576.09,589.63C576.03,579.96,574.52,577.69,564.32,573.14C560.54,571.46,562.08,591.72,562.44,606.78C566.21,761.83,665.4,776.89,692.63,813.4C746.77,886,737.149372,903.298309,741.252224,912.267336C746.644592,736.489042,577.23,779.2,576.09,589.63Z') } } svg[viewBox="0 0 1024 1024"]:has(#eRhE2BY9cP4135>#eRhE2BY9cP4136):has(#eRhE2BY9cP4135>#eRhE2BY9cP4137):has(#eRhE2BY9cP4137>#eRhE2BY9cP4138):has(#eRhE2BY9cP4137>#eRhE2BY9cP4139):has(#eRhE2BY9cP4139>#eRhE2BY9cP4140_tr):has(#eRhE2BY9cP4140_tr>#eRhE2BY9cP4140):has(#eRhE2BY9cP4135>#eRhE2BY9cP4141_tr):has(#eRhE2BY9cP4141_tr>#eRhE2BY9cP4141) #eRhE2BY9cP46 { animation: eRhE2BY9cP46__m 3000ms linear infinite normal forwards } @keyframes eRhE2BY9cP46__m { 0% { d: path('M442.59,577.13C442.37,567.46,443.82,565.15,453.88,560.31C457.61,558.52,456.66,578.82,456.72,593.88C457.4,748.98,360.739257,768.868419,334.569257,806.148419C282.529257,880.268419,287.428419,918.407766,287.418419,910.923954C287.173724,727.798455,446.89,766.65,442.59,577.13Z') } 12.666667% { d: path('M442.59,577.13C442.37,567.46,443.82,565.15,453.88,560.31C457.61,558.52,456.66,578.82,456.72,593.88C457.4,748.98,358.68,766.87,332.51,804.15C280.47,878.27,289.878419,919.06342,290.178419,881.60342C290.178419,690.618419,446.89,766.65,442.59,577.13Z') } 25% { d: path('M442.59,577.13C442.37,567.46,443.82,565.15,453.88,560.31C457.61,558.52,456.66,578.82,456.72,593.88C457.4,748.98,360.739257,768.868419,334.569257,806.148419C282.529257,880.268419,287.428419,918.407766,287.418419,910.923954C287.173724,727.798455,446.89,766.65,442.59,577.13Z') } 37.666667% { d: path('M442.59,577.13C442.37,567.46,443.82,565.15,453.88,560.31C457.61,558.52,456.66,578.82,456.72,593.88C457.4,748.98,358.68,766.87,332.51,804.15C280.47,878.27,289.878419,919.06342,290.178419,881.60342C290.178419,690.618419,446.89,766.65,442.59,577.13Z') } 50% { d: path('M442.59,577.13C442.37,567.46,443.82,565.15,453.88,560.31C457.61,558.52,456.66,578.82,456.72,593.88C457.4,748.98,360.739257,768.868419,334.569257,806.148419C282.529257,880.268419,287.428419,918.407766,287.418419,910.923954C287.173724,727.798455,446.89,766.65,442.59,577.13Z') } 62.666667% { d: path('M442.59,577.13C442.37,567.46,443.82,565.15,453.88,560.31C457.61,558.52,456.66,578.82,456.72,593.88C457.4,748.98,358.68,766.87,332.51,804.15C280.47,878.27,289.878419,919.06342,290.178419,881.60342C290.178419,690.618419,446.89,766.65,442.59,577.13Z') } 75% { d: path('M442.59,577.13C442.37,567.46,443.82,565.15,453.88,560.31C457.61,558.52,456.66,578.82,456.72,593.88C457.4,748.98,360.739257,768.868419,334.569257,806.148419C282.529257,880.268419,287.428419,918.407766,287.418419,910.923954C287.173724,727.798455,446.89,766.65,442.59,577.13Z') } 87.666667% { d: path('M442.59,577.13C442.37,567.46,443.82,565.15,453.88,560.31C457.61,558.52,456.66,578.82,456.72,593.88C457.4,748.98,358.68,766.87,332.51,804.15C280.47,878.27,289.878419,919.06342,290.178419,881.60342C290.178419,690.618419,446.89,766.65,442.59,577.13Z') } 100% { d: path('M442.59,577.13C442.37,567.46,443.82,565.15,453.88,560.31C457.61,558.52,456.66,578.82,456.72,593.88C457.4,748.98,360.739257,768.868419,334.569257,806.148419C282.529257,880.268419,287.428419,918.407766,287.418419,910.923954C287.173724,727.798455,446.89,766.65,442.59,577.13Z') } } svg[viewBox="0 0 1024 1024"]:has(#eRhE2BY9cP4135>#eRhE2BY9cP4136):has(#eRhE2BY9cP4135>#eRhE2BY9cP4137):has(#eRhE2BY9cP4137>#eRhE2BY9cP4138):has(#eRhE2BY9cP4137>#eRhE2BY9cP4139):has(#eRhE2BY9cP4139>#eRhE2BY9cP4140_tr):has(#eRhE2BY9cP4140_tr>#eRhE2BY9cP4140):has(#eRhE2BY9cP4135>#eRhE2BY9cP4141_tr):has(#eRhE2BY9cP4141_tr>#eRhE2BY9cP4141) #eRhE2BY9cP48_tr { animation: eRhE2BY9cP48_tr__tr 3000ms linear infinite normal forwards } @keyframes eRhE2BY9cP48_tr__tr { 0% { transform: translate(683.190001px, 112.52px) rotate(0deg) } 14.333333% { transform: translate(683.190001px, 112.52px) rotate(4.616755deg) } 33.333333% { transform: translate(683.190001px, 112.52px) rotate(1.600198deg) } 50% { transform: translate(683.190001px, 112.52px) rotate(0deg) } 64.333333% { transform: translate(683.190001px, 112.52px) rotate(4.616755deg) } 83.333333% { transform: translate(683.190001px, 112.52px) rotate(1.600198deg) } 100% { transform: translate(683.190001px, 112.52px) rotate(0deg) } } svg[viewBox="0 0 1024 1024"]:has(#eRhE2BY9cP4135>#eRhE2BY9cP4136):has(#eRhE2BY9cP4135>#eRhE2BY9cP4137):has(#eRhE2BY9cP4137>#eRhE2BY9cP4138):has(#eRhE2BY9cP4137>#eRhE2BY9cP4139):has(#eRhE2BY9cP4139>#eRhE2BY9cP4140_tr):has(#eRhE2BY9cP4140_tr>#eRhE2BY9cP4140):has(#eRhE2BY9cP4135>#eRhE2BY9cP4141_tr):has(#eRhE2BY9cP4141_tr>#eRhE2BY9cP4141) #eRhE2BY9cP460_tr { animation: eRhE2BY9cP460_tr__tr 3000ms linear infinite normal forwards } @keyframes eRhE2BY9cP460_tr__tr { 0% { transform: translate(429.99px, 620.5px) rotate(0deg) } 5.666667% { transform: translate(429.99px, 620.5px) rotate(0deg) } 21.666667% { transform: translate(429.99px, 620.5px) rotate(45.626206deg) } 32.666667% { transform: translate(429.99px, 620.5px) rotate(34.773546deg) } 51% { transform: translate(429.99px, 620.5px) rotate(40deg) } 70.333333% { transform: translate(429.99px, 620.5px) rotate(45.626206deg) } 92.666667% { transform: translate(429.99px, 620.5px) rotate(0deg) } 100% { transform: translate(429.99px, 620.5px) rotate(0deg) } } svg[viewBox="0 0 1024 1024"]:has(#eRhE2BY9cP4135>#eRhE2BY9cP4136):has(#eRhE2BY9cP4135>#eRhE2BY9cP4137):has(#eRhE2BY9cP4137>#eRhE2BY9cP4138):has(#eRhE2BY9cP4137>#eRhE2BY9cP4139):has(#eRhE2BY9cP4139>#eRhE2BY9cP4140_tr):has(#eRhE2BY9cP4140_tr>#eRhE2BY9cP4140):has(#eRhE2BY9cP4135>#eRhE2BY9cP4141_tr):has(#eRhE2BY9cP4141_tr>#eRhE2BY9cP4141) #eRhE2BY9cP461_to { animation: eRhE2BY9cP461_to__to 3000ms linear infinite normal forwards } @keyframes eRhE2BY9cP461_to__to { 0% { transform: translate(407.607922px, 703.175849px) } 5.666667% { transform: translate(407.607922px, 703.175849px) } 14.666667% { transform: translate(407.607922px, 703.175849px) } 16.666667% { transform: translate(406.59999px, 726.01668px) } 23.333333% { transform: translate(405.943968px, 743.50163px) } 68% { transform: translate(406.642019px, 744.20105px) } 71% { transform: translate(407.883586px, 738.439518px) } 78.333333% { transform: translate(407.437044px, 730.933255px) } 83.333333% { transform: translate(405.184295px, 724.28584px) } 87.666667% { transform: translate(405.699908px, 719.550456px) } 90% { transform: translate(407.607922px, 703.175849px) } 100% { transform: translate(407.607922px, 703.175849px) } } svg[viewBox="0 0 1024 1024"]:has(#eRhE2BY9cP4135>#eRhE2BY9cP4136):has(#eRhE2BY9cP4135>#eRhE2BY9cP4137):has(#eRhE2BY9cP4137>#eRhE2BY9cP4138):has(#eRhE2BY9cP4137>#eRhE2BY9cP4139):has(#eRhE2BY9cP4139>#eRhE2BY9cP4140_tr):has(#eRhE2BY9cP4140_tr>#eRhE2BY9cP4140):has(#eRhE2BY9cP4135>#eRhE2BY9cP4141_tr):has(#eRhE2BY9cP4141_tr>#eRhE2BY9cP4141) #eRhE2BY9cP461_tr { animation: eRhE2BY9cP461_tr__tr 3000ms linear infinite normal forwards } @keyframes eRhE2BY9cP461_tr__tr { 0% { transform: rotate(0deg) } 14.666667% { transform: rotate(0deg) } 22% { transform: rotate(97.659165deg) } 33.333333% { transform: rotate(113.707615deg) } 46.666667% { transform: rotate(97.659165deg) } 56.666667% { transform: rotate(113.707615deg) } 66.666667% { transform: rotate(97.659165deg) } 90% { transform: rotate(0deg) } 100% { transform: rotate(0deg) } } svg[viewBox="0 0 1024 1024"]:has(#eRhE2BY9cP4135>#eRhE2BY9cP4136):has(#eRhE2BY9cP4135>#eRhE2BY9cP4137):has(#eRhE2BY9cP4137>#eRhE2BY9cP4138):has(#eRhE2BY9cP4137>#eRhE2BY9cP4139):has(#eRhE2BY9cP4139>#eRhE2BY9cP4140_tr):has(#eRhE2BY9cP4140_tr>#eRhE2BY9cP4140):has(#eRhE2BY9cP4135>#eRhE2BY9cP4141_tr):has(#eRhE2BY9cP4141_tr>#eRhE2BY9cP4141) #eRhE2BY9cP464_tr { animation: eRhE2BY9cP464_tr__tr 3000ms linear infinite normal forwards } @keyframes eRhE2BY9cP464_tr__tr { 0% { transform: translate(390.268738px, 766.22px) rotate(0deg) } 14.666667% { transform: translate(390.268738px, 766.22px) rotate(0deg) } 15% { transform: translate(390.268738px, 766.22px) rotate(19.014171deg) } 89.666667% { transform: translate(390.268738px, 766.22px) rotate(19.014171deg) } 90% { transform: translate(390.268738px, 766.22px) rotate(0deg) } 100% { transform: translate(390.268738px, 766.22px) rotate(0deg) } } svg[viewBox="0 0 1024 1024"]:has(#eRhE2BY9cP4135>#eRhE2BY9cP4136):has(#eRhE2BY9cP4135>#eRhE2BY9cP4137):has(#eRhE2BY9cP4137>#eRhE2BY9cP4138):has(#eRhE2BY9cP4137>#eRhE2BY9cP4139):has(#eRhE2BY9cP4139>#eRhE2BY9cP4140_tr):has(#eRhE2BY9cP4140_tr>#eRhE2BY9cP4140):has(#eRhE2BY9cP4135>#eRhE2BY9cP4141_tr):has(#eRhE2BY9cP4141_tr>#eRhE2BY9cP4141) #eRhE2BY9cP464_ts { animation: eRhE2BY9cP464_ts__ts 3000ms linear infinite normal forwards } @keyframes eRhE2BY9cP464_ts__ts { 0% { transform: scale(1, 1) } 14.666667% { transform: scale(1, 1) } 15% { transform: scale(-1, 1) } 89.666667% { transform: scale(-1, 1) } 90% { transform: scale(1, 1) } 100% { transform: scale(1, 1) } } svg[viewBox="0 0 1024 1024"]:has(#eRhE2BY9cP4135>#eRhE2BY9cP4136):has(#eRhE2BY9cP4135>#eRhE2BY9cP4137):has(#eRhE2BY9cP4137>#eRhE2BY9cP4138):has(#eRhE2BY9cP4137>#eRhE2BY9cP4139):has(#eRhE2BY9cP4139>#eRhE2BY9cP4140_tr):has(#eRhE2BY9cP4140_tr>#eRhE2BY9cP4140):has(#eRhE2BY9cP4135>#eRhE2BY9cP4141_tr):has(#eRhE2BY9cP4141_tr>#eRhE2BY9cP4141) #eRhE2BY9cP469_tr { animation: eRhE2BY9cP469_tr__tr 3000ms linear infinite normal forwards } @keyframes eRhE2BY9cP469_tr__tr { 0% { transform: translate(590.85px, 616.059591px) rotate(0deg) } 66.666667% { transform: translate(590.85px, 616.059591px) rotate(-10.155435deg) } 100% { transform: translate(590.85px, 616.059591px) rotate(0deg) } } svg[viewBox="0 0 1024 1024"]:has(#eRhE2BY9cP4135>#eRhE2BY9cP4136):has(#eRhE2BY9cP4135>#eRhE2BY9cP4137):has(#eRhE2BY9cP4137>#eRhE2BY9cP4138):has(#eRhE2BY9cP4137>#eRhE2BY9cP4139):has(#eRhE2BY9cP4139>#eRhE2BY9cP4140_tr):has(#eRhE2BY9cP4140_tr>#eRhE2BY9cP4140):has(#eRhE2BY9cP4135>#eRhE2BY9cP4141_tr):has(#eRhE2BY9cP4141_tr>#eRhE2BY9cP4141) #eRhE2BY9cP496_ts { animation: eRhE2BY9cP496_ts__ts 3000ms linear infinite normal forwards } @keyframes eRhE2BY9cP496_ts__ts { 0% { transform: translate(526.254028px, 491.41px) scale(1, 1) } 26.666667% { transform: translate(526.254028px, 491.41px) scale(1, 1); animation-timing-function: cubic-bezier(0.42, 0, 1, 1) } 30.666667% { transform: translate(526.254028px, 491.41px) scale(1, 0.042496); animation-timing-function: cubic-bezier(0.42, 0, 0.58, 1) } 34.666667% { transform: translate(526.254028px, 491.41px) scale(1, 1); animation-timing-function: cubic-bezier(0.42, 0, 1, 1) } 76.666667% { transform: translate(526.254028px, 491.41px) scale(1, 1); animation-timing-function: cubic-bezier(0.42, 0, 1, 1) } 80.666667% { transform: translate(526.254028px, 491.41px) scale(1, 0.042496); animation-timing-function: cubic-bezier(0.42, 0, 0.58, 1) } 84.666667% { transform: translate(526.254028px, 491.41px) scale(1, 1) } 100% { transform: translate(526.254028px, 491.41px) scale(1, 1) } } svg[viewBox="0 0 1024 1024"]:has(#eRhE2BY9cP4135>#eRhE2BY9cP4136):has(#eRhE2BY9cP4135>#eRhE2BY9cP4137):has(#eRhE2BY9cP4137>#eRhE2BY9cP4138):has(#eRhE2BY9cP4137>#eRhE2BY9cP4139):has(#eRhE2BY9cP4139>#eRhE2BY9cP4140_tr):has(#eRhE2BY9cP4140_tr>#eRhE2BY9cP4140):has(#eRhE2BY9cP4135>#eRhE2BY9cP4141_tr):has(#eRhE2BY9cP4141_tr>#eRhE2BY9cP4141) #eRhE2BY9cP4119 { animation: eRhE2BY9cP4119_c_o 3000ms linear infinite normal forwards } @keyframes eRhE2BY9cP4119_c_o { 0% { opacity: 1 } 23% { opacity: 1 } 23.333333% { opacity: 0 } 43.333333% { opacity: 0 } 43.666667% { opacity: 1 } 100% { opacity: 1 } } svg[viewBox="0 0 1024 1024"]:has(#eRhE2BY9cP4135>#eRhE2BY9cP4136):has(#eRhE2BY9cP4135>#eRhE2BY9cP4137):has(#eRhE2BY9cP4137>#eRhE2BY9cP4138):has(#eRhE2BY9cP4137>#eRhE2BY9cP4139):has(#eRhE2BY9cP4139>#eRhE2BY9cP4140_tr):has(#eRhE2BY9cP4140_tr>#eRhE2BY9cP4140):has(#eRhE2BY9cP4135>#eRhE2BY9cP4141_tr):has(#eRhE2BY9cP4141_tr>#eRhE2BY9cP4141) #eRhE2BY9cP4121 { animation: eRhE2BY9cP4121_c_o 3000ms linear infinite normal forwards } @keyframes eRhE2BY9cP4121_c_o { 0% { opacity: 0 } 23.333333% { opacity: 0 } 23.666667% { opacity: 1 } 30% { opacity: 1 } 30.333333% { opacity: 0 } 100% { opacity: 0 } } svg[viewBox="0 0 1024 1024"]:has(#eRhE2BY9cP4135>#eRhE2BY9cP4136):has(#eRhE2BY9cP4135>#eRhE2BY9cP4137):has(#eRhE2BY9cP4137>#eRhE2BY9cP4138):has(#eRhE2BY9cP4137>#eRhE2BY9cP4139):has(#eRhE2BY9cP4139>#eRhE2BY9cP4140_tr):has(#eRhE2BY9cP4140_tr>#eRhE2BY9cP4140):has(#eRhE2BY9cP4135>#eRhE2BY9cP4141_tr):has(#eRhE2BY9cP4141_tr>#eRhE2BY9cP4141) #eRhE2BY9cP4126 { animation: eRhE2BY9cP4126_c_o 3000ms linear infinite normal forwards } @keyframes eRhE2BY9cP4126_c_o { 0% { opacity: 0 } 30% { opacity: 0 } 30.333333% { opacity: 1 } 36.666667% { opacity: 1 } 37% { opacity: 0 } 100% { opacity: 0 } } svg[viewBox="0 0 1024 1024"]:has(#eRhE2BY9cP4135>#eRhE2BY9cP4136):has(#eRhE2BY9cP4135>#eRhE2BY9cP4137):has(#eRhE2BY9cP4137>#eRhE2BY9cP4138):has(#eRhE2BY9cP4137>#eRhE2BY9cP4139):has(#eRhE2BY9cP4139>#eRhE2BY9cP4140_tr):has(#eRhE2BY9cP4140_tr>#eRhE2BY9cP4140):has(#eRhE2BY9cP4135>#eRhE2BY9cP4141_tr):has(#eRhE2BY9cP4141_tr>#eRhE2BY9cP4141) #eRhE2BY9cP4130 { animation: eRhE2BY9cP4130_c_o 3000ms linear infinite normal forwards } @keyframes eRhE2BY9cP4130_c_o { 0% { opacity: 0 } 37% { opacity: 0 } 37.333333% { opacity: 1 } 43.333333% { opacity: 1 } 43.666667% { opacity: 0 } 100% { opacity: 0 } } svg[viewBox="0 0 1024 1024"]:has(#eRhE2BY9cP4135>#eRhE2BY9cP4136):has(#eRhE2BY9cP4135>#eRhE2BY9cP4137):has(#eRhE2BY9cP4137>#eRhE2BY9cP4138):has(#eRhE2BY9cP4137>#eRhE2BY9cP4139):has(#eRhE2BY9cP4139>#eRhE2BY9cP4140_tr):has(#eRhE2BY9cP4140_tr>#eRhE2BY9cP4140):has(#eRhE2BY9cP4135>#eRhE2BY9cP4141_tr):has(#eRhE2BY9cP4141_tr>#eRhE2BY9cP4141) #eRhE2BY9cP4140_tr { animation: eRhE2BY9cP4140_tr__tr 3000ms linear infinite normal forwards } @keyframes eRhE2BY9cP4140_tr__tr { 0% { transform: translate(135.33781px, 207.03926px) rotate(720deg); animation-timing-function: cubic-bezier(0.415, 0.08, 0.115, 0.955) } 100% { transform: translate(135.33781px, 207.03926px) rotate(439.480519deg) } } svg[viewBox="0 0 1024 1024"]:has(#eRhE2BY9cP4135>#eRhE2BY9cP4136):has(#eRhE2BY9cP4135>#eRhE2BY9cP4137):has(#eRhE2BY9cP4137>#eRhE2BY9cP4138):has(#eRhE2BY9cP4137>#eRhE2BY9cP4139):has(#eRhE2BY9cP4139>#eRhE2BY9cP4140_tr):has(#eRhE2BY9cP4140_tr>#eRhE2BY9cP4140):has(#eRhE2BY9cP4135>#eRhE2BY9cP4141_tr):has(#eRhE2BY9cP4141_tr>#eRhE2BY9cP4141) #eRhE2BY9cP4140 { animation: eRhE2BY9cP4140_f_p 3000ms linear infinite normal forwards } @keyframes eRhE2BY9cP4140_f_p { 0% { fill: #d2dbed } 100% { fill: #d2dbed } } svg[viewBox="0 0 1024 1024"]:has(#eRhE2BY9cP4135>#eRhE2BY9cP4136):has(#eRhE2BY9cP4135>#eRhE2BY9cP4137):has(#eRhE2BY9cP4137>#eRhE2BY9cP4138):has(#eRhE2BY9cP4137>#eRhE2BY9cP4139):has(#eRhE2BY9cP4139>#eRhE2BY9cP4140_tr):has(#eRhE2BY9cP4140_tr>#eRhE2BY9cP4140):has(#eRhE2BY9cP4135>#eRhE2BY9cP4141_tr):has(#eRhE2BY9cP4141_tr>#eRhE2BY9cP4141) #eRhE2BY9cP4141_tr { animation: eRhE2BY9cP4141_tr__tr 3000ms linear infinite normal forwards } @keyframes eRhE2BY9cP4141_tr__tr { 0% { transform: translate(11.12px, 29.9px) rotate(-720deg); animation-timing-function: cubic-bezier(0.415, 0.08, 0.115, 0.955) } 100% { transform: translate(11.12px, 29.9px) rotate(-439.480519deg) } } #eRhE2BY9cP4137 { display: inline !important; fill: rgb(0, 0, 0) !important; fill-opacity: 1 !important; filter: none !important; mask: url(#eRhE2BY9cP4139) !important; opacity: 0.7 !important; stroke: none !important; stroke-opacity: 1 !important; stroke-width: 1px !important; transform: matrix(0.3, 0, 0, 0.3, -18.12243, -25.905895) !important; transform-origin: 0px 0px !important; visibility: visible !important } #eRhE2BY9cP4138 { d: path('') !important; display: inline !important; fill: rgb(255, 255, 255) !important; fill-opacity: 1 !important; filter: none !important; mask: none !important; opacity: 1 !important; stroke: none !important; stroke-opacity: 1 !important; stroke-width: 1px !important; transform: none !important; transform-origin: 0px 0px !important; visibility: visible !important } #eRhE2BY9cP4139 { display: inline !important; height: 400% !important; fill: rgb(0, 0, 0) !important; fill-opacity: 1 !important; filter: none !important; mask: none !important; opacity: 1 !important; stroke: none !important; stroke-opacity: 1 !important; stroke-width: 1px !important; transform: none !important; transform-origin: 0px 0px !important; visibility: visible !important; width: 400% !important; x: -150% !important; y: -150% !important } #eRhE2BY9cP4140 { d: path('') !important; display: inline !important; fill-opacity: 1 !important; filter: none !important; mask: none !important; opacity: 1 !important; stroke: none !important; stroke-opacity: 1 !important; stroke-width: 0px !important; transform: matrix(1, 0, 0, 1, -135.33781, -207.03926) !important; transform-origin: 0px 0px !important; visibility: visible !important } #eRhE2BY9cP4140_tr { display: inline !important; fill: rgb(0, 0, 0) !important; fill-opacity: 1 !important; filter: none !important; mask: none !important; opacity: 1 !important; stroke: none !important; stroke-opacity: 1 !important; stroke-width: 1px !important; transform-origin: 0px 0px !important; visibility: visible !important } #eRhE2BY9cP4141 { d: path('') !important; display: inline !important; fill: rgb(255, 255, 255) !important; fill-opacity: 1 !important; filter: none !important; mask: none !important; opacity: 0.7 !important; stroke: none !important; stroke-opacity: 1 !important; stroke-width: 1px !important; transform: matrix(0.3, 0, 0, 0.3, -28.770844, -32.5395) !important; transform-origin: 0px 0px !important; visibility: visible !important } #eRhE2BY9cP4141_tr { display: inline !important; fill: rgb(0, 0, 0) !important; fill-opacity: 1 !important; filter: none !important; mask: none !important; opacity: 1 !important; stroke: none !important; stroke-opacity: 1 !important; stroke-width: 1px !important; transform-origin: 0px 0px !important; visibility: visible !important } </style> <defs><linearGradient id="eRhE2BY9cP4134-fill" x1="0.5" y1="0" x2="0.5" y2="1" spreadMethod="pad" gradientUnits="objectBoundingBox" gradientTransform="translate(0 0)"><stop id="eRhE2BY9cP4134-fill-0" offset="0%" stop-color="rgba(255,255,255,0)"/><stop id="eRhE2BY9cP4134-fill-1" offset="100%" stop-color="#010022"/></linearGradient></defs><g transform="translate(.000001-12.420006)"><g><path id="eRhE2BY9cP44" d="M578.92,587.33c.14-32.56-128.02-25.18-128.96,7.11-4.58,156.94-165.204631,128.42833-165.174631,323.41833c0,.053335.110917.009276.327942-.120017c3.258031-1.940969,31.473966-34.958948,66.287594-34.16816c24.480542.556074,44.428063,34.597071,77.044095,35.074149c25.56266.373908,49.420441-34.79048,76.82-35.074149c23.370419-.241956,62.696452,35.628578,85.235372,35.074149c36.307527-.89312,57.975764-33.887656,85.364628-35.074149c39.319015-1.703312,68.38,35.779462,68.38,35.074149C744.245,721.384302,578.09,779.45,578.91,587.34l.01-.01Z" transform="translate(.445 1.481034)" fill="#eb2c1d" stroke="#0b1c38" stroke-width="6.03" stroke-miterlimit="10"/><path id="eRhE2BY9cP45" d="M576.09,589.63c-.06-9.67-1.57-11.94-11.77-16.49-3.78-1.68-2.24,18.58-1.88,33.64C566.21,761.83,665.4,776.89,692.63,813.4c54.14,72.6,44.519372,89.898309,48.622224,98.867336C746.644592,736.489042,577.23,779.2,576.09,589.63Z" fill="#9f1a45"/><path id="eRhE2BY9cP46" d="M442.59,577.13c-.22-9.67,1.23-11.98,11.29-16.82c3.73-1.79,2.78,18.51,2.84,33.57.68,155.1-95.980743,174.988419-122.150743,212.268419-52.04,74.12-47.140838,112.259347-47.150838,104.775535C287.173724,727.798455,446.89,766.65,442.59,577.13Z" transform="translate(.811581 0.811581)" fill="#9f1a45"/></g><g><g id="eRhE2BY9cP48_tr" transform="translate(683.190001,112.52) rotate(0)"><g transform="translate(-683.189998,-112.519997)"><path d="M713.52,97.45c0,0,78.42,2.26,96.52,52.41s26.34,153.18,28.25,204.21c1.91,51.04,26.79,57.07,44.51,38.97s41.85-18.1,23.75,18.1-35.81,48.26-93.31,51.28-129.89-147.03-129.89-243.94-30.16-127.06,30.16-121.03h.01Z" fill="#1a1a1a" stroke="#000" stroke-width="12.07" stroke-miterlimit="10"/><path d="M718.02,139.78c0,0,65.82,1.9,81.01,43.99s22.11,128.57,23.71,171.41s17.46,67.51,38.57,65.01c15.56-1.84,33.56-18.97,18.1,6.03-17.87,28.89-42.23,30.16-77.69,19.9C755.3,432.68,692.7,322.71,692.7,241.37s-25.32-106.65,25.32-101.59Z" fill="#333"/></g></g></g><g><circle r="40.14" transform="translate(287.03 451.27)" fill="#ffc996" stroke="#1a1a1a" stroke-width="8.87" stroke-linecap="round" stroke-linejoin="round"/></g><g><circle r="40.14" transform="translate(763.01 451.27)" fill="#ffc996" stroke="#1a1a1a" stroke-width="8.87" stroke-linecap="round" stroke-linejoin="round"/></g><g><g><circle r="54.29" transform="translate(671.29 145.71)" fill="#1a1a1a" stroke="#000" stroke-width="12.07" stroke-miterlimit="10"/><circle r="43.74" transform="translate(660.73 156.26)" fill="#333"/></g></g><g transform="translate(.000001-1)"><g transform="translate(0 0.000001)"><g><path d="M462.35,848.09v62.95c0,10.03,8.13,18.16,18.16,18.16h.55c10.09,0,18.25-8.23,18.16-18.32l-.55-62.95c-.08-8.82-6.48-16.31-15.18-17.76v0c-11.07-1.85-21.15,6.69-21.15,17.92h.01Z" fill="#ffc996" stroke="#0b1c38" stroke-width="6.03" stroke-linecap="round" stroke-linejoin="round"/></g><g><g><path d="M499.23,907.94c.64,5.05-.16,24.49,0,29.58-7.78,4.29-15.98,7.8-24,11.48-8.68,3.98-17.65,8.77-26.85,10.83-4.08.91-13.53,4.16-17.55-2.47-2.08-3.43-.8-8.69,2.88-13.78c3.42-4.73,8.15-9.79,12.36-12.98-.27,2.75-.28,4.55,1.11,6.91c1.18,2,2.97,3,5.02,3.35c1.92.33,3.73-.08,5.57-.71c7.68-2.62,35.39-26.88,41.47-32.21h-.01Z" fill="#ffba0a" stroke="#0b1c38" stroke-width="6.03" stroke-linecap="round" stroke-linejoin="round"/><path d="M499.23,892.86c0,0-.04,18.08-.53,24.11-6.08,5.33-33.2,20.26-40.89,22.87-1.84.63-3.65,1.04-5.57.71-2.05-.35-3.84-1.36-5.02-3.35-1.39-2.35-1.43-3.85-1.16-6.6c9.31-7.84,11.6-10.51,17.17-19.98" fill="#ffc996" stroke="#0b1c38" stroke-width="6.03" stroke-linecap="round" stroke-linejoin="round"/></g></g></g><g><g><path d="M518.19,844.09v62.95c0,10.03,8.13,18.16,18.16,18.16h.55c10.09,0,18.25-8.23,18.16-18.32l-.55-62.95c-.08-8.82-6.48-16.31-15.18-17.76v0c-11.07-1.85-21.15,6.69-21.15,17.92h.01Z" fill="#ffc996" stroke="#0b1c38" stroke-width="6.03" stroke-linecap="round" stroke-linejoin="round"/></g><g><g><path d="M518.44,909.99c-.64,5.05.16,24.49,0,29.58c7.78,4.29,15.98,7.8,24,11.48c8.68,3.98,17.65,8.77,26.85,10.83c4.08.91,13.53,4.16,17.55-2.47c2.08-3.43.8-8.69-2.88-13.78-3.42-4.73-8.15-9.79-12.36-12.98.27,2.75.28,4.55-1.11,6.91-1.18,2-2.97,3-5.02,3.35-1.92.33-3.73-.08-5.57-.71-7.68-2.62-35.39-26.88-41.47-32.21h.01Z" fill="#ffba0a" stroke="#0b1c38" stroke-width="6.03" stroke-linecap="round" stroke-linejoin="round"/><path d="M518.44,894.91c0,0,.04,18.08.53,24.11c6.08,5.33,33.2,20.26,40.89,22.87c1.84.63,3.65,1.04,5.57.71c2.05-.35,3.84-1.36,5.02-3.35c1.39-2.35,1.43-3.85,1.16-6.6-9.31-7.84-11.6-10.51-17.17-19.98" fill="#ffc996" stroke="#0b1c38" stroke-width="6.03" stroke-linecap="round" stroke-linejoin="round"/></g></g></g></g><g><path d="M437.7,782.89c0,0-34.54,43.03-62.12,56.03-5.8,2.73-7.03,14.65,11.59,17.21c31.13,4.28,45.21-11.05,45.21-11.05s18.91,40.54,49.33,3.95c0,0,6.17,14.42,30.3,14.42s28.63-14.42,28.63-14.42s22.34,29.04,51.72-4.84c28.48,16.55,63.21-1.39,51.85-7.94-42.58-24.57-53.35-58.98-53.35-58.98L437.71,782.9l-.01-.01Z" fill="#1790ff" stroke="#0b1c38" stroke-width="6" stroke-linecap="round" stroke-linejoin="round"/><path d="M512,797.64c0,0,43.63,1.16,59.65,9.32c7.73,3.94,29.97,23.28,37.01,28.63c10.71,8.14,28.41,14.7,34.98,3.56-25-15.57-41.86-30-54.71-57.43-16.14,8.57-76.92,15.91-76.92,15.91l-.01.01Z" fill="#226db2"/></g><g><g><path d="M421.26,626.54l18.78,58.49c0,0,32.08,50.18-2.33,97.86c0,0,86.11,28.78,153.15-5.63c0,0-30.85-49.21,7.86-118.46l13.76-29.25-191.22-3.02v.01Z" fill="#ffba0a" stroke="#0b1c38" stroke-width="6.03" stroke-linecap="round" stroke-linejoin="round"/><path d="M466.5,587.33c0,0,21.65,35.45,45.51,37.33s44.98-31.3,44.98-31.3l-90.49-6.03Z" fill="#ffc996" stroke="#0b1c38" stroke-width="6.03" stroke-linecap="round" stroke-linejoin="round"/><g><path d="M530.35,706.7h-32.7c-3.06,0-5.57,2.54-5.57,5.64v32.56c0,3.1,2.52,5.64,5.57,5.64h32.7c3.08,0,5.57-2.54,5.57-5.64v-32.56c0-3.1-2.5-5.64-5.57-5.64" fill="#9f1a45" fill-rule="evenodd"/><path d="M530.35,751.12h-32.7c-3.39,0-6.15-2.79-6.15-6.22v-32.56c0-3.43,2.76-6.22,6.15-6.22h32.7c3.39,0,6.15,2.79,6.15,6.22v32.56c0,3.43-2.76,6.22-6.15,6.22m-32.7-43.84c-2.75,0-4.99,2.27-4.99,5.06v32.56c0,2.79,2.24,5.06,4.99,5.06h32.7c2.75,0,4.99-2.27,4.99-5.06v-32.56c0-2.79-2.24-5.06-4.99-5.06h-32.7Z" fill="#fff"/><path d="M514.27,715.77c3.78,0,6.83,3.06,6.83,6.77s-3.05,6.77-6.83,6.77-6.87-3.03-6.87-6.77s3.09-6.77,6.87-6.77Zm7.95-3.34h7.98v32.4h-7.98v-9.18c-7.03,2.57-13.6,2.8-19.65-3.12-2.5-2.6-3.91-6.15-3.32-12.33.1-.95-.34-5.33-1.45-7.78h7.1c3.32,5.27-1.03,12,4.06,16.3c6.93,4.49,12.98-.88,13.28-5.73v-10.57v0l-.02.01Z" fill="#febd30" fill-rule="evenodd"/></g></g><path d="M443.08,774.5c-2.75,4.54-4.37,6.54-6.09,9.81c0,0,86.82,27.36,153.86-7.05c0,0-3.36-5.36-4.22-8.79-59.49,25.02-120.51,12.23-143.55,6.03Z" fill="#9e043c" stroke="#0b1c38" stroke-width="6.03" stroke-linecap="round" stroke-linejoin="round"/><rect width="7.85" height="13.61" rx="0" ry="0" transform="matrix(.986572 0.163326-.163326 0.986572 465.367876 778.19404)" fill="#ffba0a" stroke="#0b1c38" stroke-width="3.93" stroke-linecap="round" stroke-linejoin="round"/><rect width="7.85" height="13.24" rx="0" ry="0" transform="matrix(-.986572 0.163326-.163326-.986572 562.294518 789.717284)" fill="#ffba0a" stroke="#0b1c38" stroke-width="3.88" stroke-linecap="round" stroke-linejoin="round"/><rect width="21.5" height="20" rx="10" ry="10" transform="matrix(.999634-.027049 0.027049 0.999634 503.935041 778.905396)" fill="#ffba0a" stroke="#0b1c38" stroke-width="6" stroke-linecap="round" stroke-linejoin="round"/></g><g id="eRhE2BY9cP460_tr" transform="translate(429.99,620.5) rotate(0)"><g transform="translate(-429.99,-620.5)"><g id="eRhE2BY9cP461_to" transform="translate(407.607922,703.175849)"><g id="eRhE2BY9cP461_tr" transform="rotate(0)"><g transform="translate(-407.607922,-703.175849)"><g><path d="M417.62,709.89l-16.19,62.53-6.82,7.28c-3.99,4.26-11.05,2.97-13.28-2.43l-4.2-10.18l15.85-62.56c0,0,2.62-7.89,14.3-4.73c8.54,2.31,10.33,10.08,10.33,10.08l.01.01Z" fill="#ffc996" stroke="#0b1c38" stroke-width="6.03" stroke-linecap="round" stroke-linejoin="round"/></g><g id="eRhE2BY9cP464_tr" transform="translate(390.268738,766.22) rotate(0)"><g id="eRhE2BY9cP464_ts" transform="scale(1,1)"><g transform="translate(-390.467254,-766.22)"><path d="M377.4,766.22c0,0-18.44,24.62,5.93,29.57c5.39,1.1,12.65,1.35,16.16-6.97c3.12-7.4,9.52-2.46,10.49-5.61.64-2.06-6.31-9.56-8.2-12.04" fill="#ffc996" stroke="#0b1c38" stroke-width="6.03" stroke-linecap="round" stroke-linejoin="round"/></g></g></g></g></g></g><g><polyline points="410.85,735.21 420.9,698.38 396.21,689.59 387.17,727.76" fill="#ffc996" stroke="#0b1c38" stroke-width="6.03" stroke-linecap="round" stroke-linejoin="round"/><path d="M449.96,594.44c0,0-52.05-5.1-52.72,38.14-.85,54.62-16,58.85-16,58.85L433.44,711l16.53-116.56h-.01Z" fill="#1790ff" stroke="#0b1c38" stroke-width="6" stroke-linecap="round" stroke-linejoin="round"/></g></g></g><g id="eRhE2BY9cP469_tr" transform="translate(590.85,616.059591) rotate(0)"><g transform="translate(-590.85,-616.059582)"><g><path d="M605.98,709.89l16.19,62.53l7.95,8.91c4.22,3.59,10.68,2.25,13.14-2.72l3.21-11.52-15.85-62.56" fill="#ffc996" stroke="#0b1c38" stroke-width="6.03" stroke-linecap="round" stroke-linejoin="round"/></g><g><path d="M646.4,766.22c0,0,18.44,24.62-5.93,29.57-5.39,1.1-12.65,1.35-16.16-6.97-3.12-7.4-9.52-2.46-10.49-5.61-.64-2.06,6.31-9.56,8.2-12.04" fill="#ffc996" stroke="#0b1c38" stroke-width="6.03" stroke-linecap="round" stroke-linejoin="round"/></g><g><polyline points="638.2,732.35 622.84,671.53 598.71,677.56 614.01,739.88" fill="#ffc996" stroke="#0b1c38" stroke-width="6.03" stroke-linecap="round" stroke-linejoin="round"/><path d="M573.64,594.44c0,0,52.05-5.1,52.72,38.14.85,54.62,16,58.85,16,58.85L590.16,711L573.63,594.44h.01Z" fill="#1790ff" stroke="#0b1c38" stroke-width="6" stroke-linecap="round" stroke-linejoin="round"/></g></g></g><g><path d="M499.68,620.51c0,0-30.16-40.65-66.36-26.36s0,80.68,0,80.68s42.23,18.07,60.33-6.06s6.03-48.26,6.03-48.26Z" fill="#1790ff" stroke="#0b1c38" stroke-width="6" stroke-linecap="round" stroke-linejoin="round"/><path d="M449.66,631v0c-4.52,0-9.5-2.46-11.56-8.99s-8.11-26.3-8.11-26.3s7.22-5.83,19.47-5.83c16.38,0,21.77,4.36,21.77,4.36s-6.82,19.37-9.36,26.26c-2.24,6.07-7.69,10.5-12.22,10.5h.01Z" fill="#eb2c1d" stroke="#0b1c38" stroke-width="6.03" stroke-miterlimit="10"/><circle r="5.6" transform="translate(450.01 604.85)" fill="#ffba0a"/></g><g><path d="M523.73,620.51c0,0,30.16-40.65,66.36-26.36s0,80.68,0,80.68-42.23,18.07-60.33-6.06-6.03-48.26-6.03-48.26Z" fill="#1790ff" stroke="#0b1c38" stroke-width="6" stroke-linecap="round" stroke-linejoin="round"/><path d="M572.68,631v0c-4.52,0-9.5-2.46-11.56-8.99s-8.11-26.3-8.11-26.3s7.22-5.83,19.47-5.83c16.38,0,21.77,4.36,21.77,4.36s-6.82,19.37-9.36,26.26c-2.24,6.07-7.69,10.5-12.22,10.5h.01Z" fill="#eb2c1d" stroke="#0b1c38" stroke-width="6.03" stroke-miterlimit="10"/><circle r="5.6" transform="translate(573.64 604.85)" fill="#ffba0a"/></g><g><polygon points="529.84,638.6 560,662.73 539.75,662.73 529.84,685.03 512.01,638.6 517.78,632.57 529.84,638.6" fill="#eb2c1d" stroke="#0b1c38" stroke-width="6.03" stroke-linecap="round" stroke-linejoin="round"/></g><g><polygon points="487.88,638.6 457.72,662.73 477.97,662.73 487.88,685.03 505.71,638.6 499.95,632.57 487.88,638.6" fill="#eb2c1d" stroke="#0b1c38" stroke-width="6.03" stroke-linecap="round" stroke-linejoin="round"/></g><g><circle r="12.07" transform="translate(511.74 632.57)" fill="#ffba0a" stroke="#0b1c38" stroke-width="6.03" stroke-linecap="round" stroke-linejoin="round"/></g><g><path d="M288.23,423.42c0,0-18.9,141.45,138.75,159.64c156.85,18.1,199.07,0,199.07,0s141.07-41.78,139.91-159.64L764.8,305.56c0,0-30.16-138.75-150.81-174.94-120.65-36.2-297.84,17.72-323,173.99-4.81,29.89-2.75,118.81-2.75,118.81h-.01Z" fill="#ffc996" stroke="#1a1a1a" stroke-width="8.87" stroke-linecap="round" stroke-linejoin="round"/><g><path d="M414.06,529.54c4.62-.11,9.11-.12,13.39.54c3.16.49,5.97,1.33,7.09,2.42.82.81.59,1.64-.63,2.39-2.19,1.35-6.3,2.01-10.59,2.47-4.63.32-10.51.25-14.73-.46-2.85-.48-5.21-1.26-6.12-2.27-.1-.12-.19-.24-.25-.36-.07-.12-.11-.24-.14-.37-.03-.12-.04-.25-.02-.37.01-.12.04-.25.09-.37s.12-.24.21-.36.2-.24.32-.35c.13-.12.27-.23.43-.34s.34-.22.54-.33c2.3-1.26,6.18-1.89,10.42-2.24h-.01Z" fill="#ff8d8d"/><path d="M634.36,529.43c4.38.04,8.46.2,12.13,1.06c2.61.61,4.42,1.5,4.85,2.53.05.12.08.25.09.38s0,.25-.03.38-.08.25-.14.37c-.07.12-.16.25-.26.37-.11.12-.23.24-.37.36s-.31.23-.49.34-.38.22-.59.33-.44.21-.69.3c-2.98,1.19-7.27,1.57-11.78,1.75-4.74.02-9.35-.16-13.22-1.12-2.59-.64-4.43-1.57-4.71-2.63-.03-.13-.04-.26-.03-.38c0-.13.04-.26.09-.38.05-.13.12-.25.21-.38.09-.12.2-.25.33-.37s.27-.24.44-.36.35-.23.55-.34.42-.22.65-.32c.24-.1.49-.2.75-.3c3.22-1.16,7.61-1.48,12.22-1.58v-.01Z" fill="#ff8d8d"/></g></g><g id="eRhE2BY9cP496_ts" transform="translate(526.254028,491.41) scale(1,1)"><g transform="translate(-526.254028,-491.41)"><g><g><circle r="45.24" transform="translate(414.75 461.58)" fill="#1a1a1a"/><path d="M386.67,421.92c-4.65-.84-7.59-3.67-11.54-5.95.06.16.11.33.18.49c1.03,2.68,4.72,6.55,4.91,9.01-2.25,1.33-3.9,1.42-6.36.77-3.16-.83-5.38-2.22-7.34-4.84h-.41c.69,3.46,2.18,6.61,3.55,9.84-1.38-1.19-2.85-2.91-4.62-3.23.87,2.5,3.7,4.3,6.02,5.34c2.35,1.06,5.68,1.62,8.13.55c1.5-.66,2.6-2.21,3.61-3.45c2.03-1.81,5.67-4.23,6.41-6.91-.91-1.36-1.08-1.14-2.55-1.63l.01.01Z" fill="#1a1a1a"/></g><g><circle r="15.08" transform="translate(413.81 443.48)" fill="#e6e8e9"/></g></g><g transform="translate(.000001 0.000001)"><g><path d="M668.61,420.3c1.14-1.22,2.5-2.23,3.8-3.28-2.16,3.94-4.7,7.5-3.76,12.18c4.16-1.68,7.88-4.22,11.67-6.6-1.62,3-3.6,5.97-4.01,9.4l.5,1.44c3.29.98,7.07-1.4,9.95-3c.88-.49,1.71-1,2.56-1.54-1.39,2.64-2.65,5.34-4.58,7.63c1.42-.05,2.41-.45,3.73-.93l.27.57c-1.76,2.48-3.98,3.08-6.91,3.63-3.96.75-8.96.34-12.25-2.2-1.47-1.14-2.68-3-2.72-4.91-.02-.95,1.23-2.2,1.8-2.97-.86.13-1.2.05-1.88.62-1.52,1.27-2.26,1.75-4.24,1.9-.25-4.02,3.9-8.8,6.1-11.94h-.03Z" fill="#111a1b"/><circle r="45.24" transform="translate(637.95 461.58)" fill="#1a1a1a"/></g><g><circle r="15.08" transform="translate(637.95 443.48)" fill="#e6e8e9"/></g></g></g></g><g><g><path d="M287.03,411.13c0,0,179.69,9.91,239.75-103.63c0,0,62.4,105.49,239.19,107.58c0,0,69.43-292.49-239.19-296.53-285.08-3.73-239.75,292.58-239.75,292.58Z" fill="#1a1a1a" stroke="#000" stroke-width="12.07" stroke-miterlimit="10"/><path d="M305.9,390.59c0,0,169.33-18.67,217.59-127.25c0,0,88.49,121.68,221.2,127.72c0,0,39.4-242.6-218.47-247.54C287.83,138.95,305.89,390.6,305.89,390.6l.01-.01Z" fill="#333"/><ellipse rx="17.56" ry="49.45" transform="matrix(.563526-.826098 0.826098 0.563526 658.82539 232.7872)" fill="#fff"/><ellipse rx="6.45" ry="8.31" transform="matrix(.563526-.826098 0.826098 0.563526 703.03838 267.037907)" fill="#fff"/></g></g></g><g transform="translate(-.08999-11.973731)"><g id="eRhE2BY9cP4119"><path d="M546.78,538.48c-5.85,6.57-17.17,10.28-25.68,10.98-13.11,1.08-24.87-2.54-34.83-11.09" fill="none" stroke="#1a1a1a" stroke-width="15" stroke-linecap="round" stroke-miterlimit="10"/></g><g id="eRhE2BY9cP4121" opacity="0"><g><path d="M518.53,525.67c21.37.19,45.32,1.55,45.32,8.13c0,7.2-23.75,24.59-46.34,24.59s-47.36-16.6-47.36-23.79c0-9.98,40.15-9,48.38-8.93v0Z" fill="#1a1a1a" fill-rule="evenodd"/><path d="M518.53,525.67c11.04.1,22.78.51,31.54,1.79-3.88,6.07-17.27,10.54-33.2,10.54s-29.53-4.55-33.29-10.69c12.47-2.09,29.84-1.69,34.94-1.65v0l.01.01Z" fill="#fff" fill-rule="evenodd"/><path d="M516.87,551.83c7.59,0,14.6,1.02,20.28,2.73-6.22,2.32-12.98,3.83-19.64,3.83s-14.04-1.56-20.59-3.93c5.62-1.66,12.51-2.64,19.96-2.64v0l-.01.01Z" fill="#e8645f" fill-rule="evenodd"/></g></g><g id="eRhE2BY9cP4126" opacity="0"><g><path d="M514.47,527.88c26.24,0,49.87,8,49.87,15.8s-23.62,12.44-49.87,12.44-44.32-4.14-44.32-11.94s18.07-16.3,44.32-16.3v0Z" fill="#1a1a1a" fill-rule="evenodd"/><path d="M533.01,542.23c9.74,2.07,16.38,5.99,16.6,10.51-9.22,2.19-21.84,3.39-35.14,3.39-11.77,0-21.89-.83-29.48-2.46-.03-.23-.05-.46-.05-.69c0-4.62,6.7-8.64,16.61-10.74-9.41-2-15.93-5.73-16.56-10.05c7.59-2.59,17.71-4.3,29.48-4.3c13.2,0,25.73,2.02,34.94,5.03-1.22,4.02-7.52,7.44-16.39,9.32v0l-.01-.01Z" fill="#fff" fill-rule="evenodd"/></g></g><g id="eRhE2BY9cP4130" opacity="0"><g><path d="M517,519.28c14.25,0,13.83,8.93,13.83,19.94s-.9,19.94-13.83,19.94-13.83-8.93-13.83-19.94-.43-19.94,13.83-19.94v0Z" fill="#1a1a1a" fill-rule="evenodd"/><path d="M517,546.76c4.95,0,9.52.75,13.22,2.02-1.14,6.19-4.35,10.38-13.22,10.38s-12.07-4.2-13.22-10.38c3.7-1.27,8.27-2.02,13.22-2.02v0Z" fill="#e8645f" fill-rule="evenodd"/></g></g></g><g id="eRhE2BY9cP4135" transform="matrix(2.925714 0 0 2.925714 526.628571 819.2)" style="display:none!important;fill:rgb(0, 0, 0)!important;fill-opacity:1!important;filter:none!important;mask:none!important;opacity:1!important;stroke:none!important;stroke-opacity:1!important;stroke-width:1px!important;transform:matrix(2.925714, 0, 0, 2.925714, 526.628571, 819.2)!important;transform-origin:0px 0px!important;visibility:visible!important"><path id="eRhE2BY9cP4136" d="" opacity="0.7" clip-rule="evenodd" fill="#fff" fill-rule="evenodd" style="d:path('')!important;display:inline!important;fill:rgb(255, 255, 255)!important;fill-opacity:1!important;filter:none!important;mask:none!important;opacity:0.7!important;stroke:none!important;stroke-opacity:1!important;stroke-width:1px!important;transform:none!important;transform-origin:0px 0px!important;visibility:visible!important"/><g id="eRhE2BY9cP4137" transform="matrix(.3 0 0 0.3-18.12243-25.905895)" opacity="0.7" mask="url(#eRhE2BY9cP4139)" style="display:inline!important;fill:rgb(0, 0, 0)!important;fill-opacity:1!important;filter:none!important;mask:url(#eRhE2BY9cP4139)!important;opacity:0.7!important;stroke:none!important;stroke-opacity:1!important;stroke-width:1px!important;transform:matrix(0.3, 0, 0, 0.3, -18.12243, -25.905895)!important;transform-origin:0px 0px!important;visibility:visible!important"><path id="eRhE2BY9cP4138" d="" fill="#fff" /><mask id="eRhE2BY9cP4139" mask-type="alpha" x="-150%" y="-150%" height="400%" width="400%" style="display:inline!important;height:400%!important;fill:rgb(0, 0, 0)!important;fill-opacity:1!important;filter:none!important;mask:none!important;opacity:1!important;stroke:none!important;stroke-opacity:1!important;stroke-width:1px!important;transform:none!important;transform-origin:0px 0px!important;visibility:visible!important;width:400%!important;x:-150%!important;y:-150%!important"><g id="eRhE2BY9cP4140_tr" transform="translate(135.33781,207.03926) rotate(720)" style="display:inline!important;fill:rgb(0, 0, 0)!important;fill-opacity:1!important;filter:none!important;mask:none!important;opacity:1!important;stroke:none!important;stroke-opacity:1!important;stroke-width:1px!important;transform-origin:0px 0px!important;visibility:visible!important"><path id="eRhE2BY9cP4140" d="" transform="matrix(1 0 0 1-135.33781-207.03926)" fill="#d2dbed" stroke-width="0" style="d:path('')!important;display:inline!important;fill-opacity:1!important;filter:none!important;mask:none!important;opacity:1!important;stroke:none!important;stroke-opacity:1!important;stroke-width:0px!important;transform:matrix(1, 0, 0, 1, -135.33781, -207.03926)!important;transform-origin:0px 0px!important;visibility:visible!important"/></g></mask></g><g id="eRhE2BY9cP4141_tr" transform="translate(11.12,29.9) rotate(-720)" style="display:inline!important;fill:rgb(0, 0, 0)!important;fill-opacity:1!important;filter:none!important;mask:none!important;opacity:1!important;stroke:none!important;stroke-opacity:1!important;stroke-width:1px!important;transform-origin:0px 0px!important;visibility:visible!important"><path id="eRhE2BY9cP4141" d="" transform="matrix(.3 0 0 0.3-28.770844-32.5395)" opacity="0.7" fill="#fff" style="d:path('')!important;display:inline!important;fill:rgb(255, 255, 255)!important;fill-opacity:1!important;filter:none!important;mask:none!important;opacity:0.7!important;stroke:none!important;stroke-opacity:1!important;stroke-width:1px!important;transform:matrix(0.3, 0, 0, 0.3, -28.770844, -32.5395)!important;transform-origin:0px 0px!important;visibility:visible!important"/></g></g></svg>